Coordinates
version=1
nRows=14
nColumns=24
inDegrees=yes

Units are S.I. units (second, meters, Newtons, ...)
Angles are in degrees.

endheader
time	pelvis_tilt	pelvis_list	pelvis_rotation	pelvis_tx	pelvis_ty	pelvis_tz	hip_flexion_r	hip_adduction_r	hip_rotation_r	knee_angle_r	ankle_angle_r	subtalar_angle_r	mtp_angle_r	hip_flexion_l	hip_adduction_l	hip_rotation_l	knee_angle_l	ankle_angle_l	subtalar_angle_l	mtp_angle_l	lumbar_extension	lumbar_bending	lumbar_rotation
44.99800000	4.84455933	-1.84559258	-0.77772078	0.60102028	1.04559875	-0.02160049	-9.79984647	-2.90617367	-6.95037445	-16.01606136	11.78799912	-0.00000082	0.00000000	34.00645765	1.38076320	0.20135362	-10.12177157	4.01564966	0.00000249	0.00000000	-19.54310531	-0.47001089	-4.72635202
45.00000000	4.84455933	-1.84559258	-0.77772078	0.60102028	1.04559875	-0.02160049	-9.83952827	-2.90617367	-6.95037445	-16.33769999	11.70451189	-0.00000082	0.00000000	34.05134540	1.38076320	0.20135362	-10.08785622	4.02067094	0.00000249	0.00000000	-19.54310531	-0.47001089	-4.72635202
45.00200000	4.84455933	-1.84559258	-0.77772078	0.60102028	1.04559875	-0.02160049	-9.86814033	-2.90617367	-6.95037445	-16.67717076	11.61350281	-0.00000082	0.00000000	34.09628285	1.38076320	0.20135362	-10.07931067	4.01304013	0.00000249	0.00000000	-19.54310531	-0.47001089	-4.72635202
45.00400000	4.84455933	-1.84559258	-0.77772078	0.60102028	1.04559875	-0.02160049	-9.88602198	-2.90617367	-6.95037445	-17.03411693	11.51403846	-0.00000082	0.00000000	34.14126035	1.38076320	0.20135362	-10.09629749	3.99027756	0.00000249	0.00000000	-19.54310531	-0.47001089	-4.72635202
45.00600000	4.84455933	-1.84559258	-0.77772078	0.60102028	1.04559875	-0.02160049	-9.89343211	-2.90617367	-6.95037445	-17.40814298	11.40515416	-0.00000082	0.00000000	34.18610032	1.38076320	0.20135362	-10.13910921	3.94990041	0.00000249	0.00000000	-19.54310531	-0.47001089	-4.72635202
45.00800000	4.84455933	-1.84559258	-0.77772078	0.60102028	1.04559875	-0.02160049	-9.89013769	-2.90617367	-6.95037445	-17.79861179	11.28586335	-0.00000082	0.00000000	34.23047637	1.38076320	0.20135362	-10.20814606	3.88949895	0.00000249	0.00000000	-19.54310531	-0.47001089	-4.72635202
45.01000000	4.84455933	-1.84559258	-0.77772078	0.60102028	1.04559875	-0.02160049	-9.87742254	-2.90617367	-6.95037445	-18.20568118	11.15506623	-0.00000082	0.00000000	34.27464603	1.38076320	0.20135362	-10.30351987	3.80682204	0.00000249	0.00000000	-19.54310531	-0.47001089	-4.72635202
45.01200000	4.84455933	-1.84559258	-0.77772078	0.60102028	1.04559875	-0.02160049	-9.85469481	-2.90617367	-6.95037445	-18.62857666	11.01174151	-0.00000082	0.00000000	34.31834723	1.38076320	0.20135362	-10.42560731	3.69979376	0.00000249	0.00000000	-19.54310531	-0.47001089	-4.72635202
45.01400000	4.84455933	-1.84559258	-0.77772078	0.60102028	1.04559875	-0.02160049	-9.82233629	-2.90617367	-6.95037445	-19.06705648	10.85478541	-0.00000082	0.00000000	34.36159235	1.38076320	0.20135362	-10.57461659	3.56660954	0.00000249	0.00000000	-19.54310531	-0.47001089	-4.72635202
45.01600000	4.84455933	-1.84559258	-0.77772078	0.60102028	1.04559875	-0.02160049	-9.78047216	-2.90617367	-6.95037445	-19.52078813	10.68308070	-0.00000082	0.00000000	34.40426355	1.38076320	0.20135362	-10.75077388	3.40577143	0.00000249	0.00000000	-19.54310531	-0.47001089	-4.72635202
45.01800000	4.84455933	-1.84559258	-0.77772078	0.60102028	1.04559875	-0.02160049	-9.72934867	-2.90617367	-6.95037445	-19.98954814	10.49549943	-0.00000082	0.00000000	34.44655925	1.38076320	0.20135362	-10.95406654	3.21619469	0.00000249	0.00000000	-19.54310531	-0.47001089	-4.72635202
45.02000000	4.84455933	-1.84559258	-0.77772078	0.60102028	1.04559875	-0.02160049	-9.66914599	-2.90617367	-6.95037445	-20.47312898	10.29091056	-0.00000082	0.00000000	34.48843558	1.38076320	0.20135362	-11.18450679	2.99719591	0.00000249	0.00000000	-19.54310531	-0.47001089	-4.72635202
45.02200000	4.84455933	-1.84559258	-0.77772078	0.60102028	1.04559875	-0.02160049	-9.60003123	-2.90617367	-6.95037445	-20.97136966	10.06819312	-0.00000082	0.00000000	34.52995925	1.38076320	0.20135362	-11.44192395	2.74858601	0.00000249	0.00000000	-19.54310531	-0.47001089	-4.72635202
45.02400000	4.84455933	-1.84559258	-0.77772078	0.60102028	1.04559875	-0.02160049	-9.52200239	-2.90617367	-6.95037445	-21.48407517	9.82623809	-0.00000082	0.00000000	34.57120542	1.38076320	0.20135362	-11.72599485	2.47067900	0.00000249	0.00000000	-19.54310531	-0.47001089	-4.72635202
